<svg width="29" height="25" viewBox="0 0 29 25" fill="none" xmlns="http://www.w3.org/2000/svg">
<path d="M9.12311 24.2811C20.0638 24.2811 26.0496 15.2147 26.0496 7.35466C26.0496 7.09977 26.0439 6.83923 26.0326 6.58434C27.197 5.74226 28.2019 4.69922 29 3.50423C27.9155 3.98672 26.7642 4.30183 25.5851 4.4388C26.8265 3.69467 27.7561 2.52569 28.2014 1.14854C27.0335 1.84067 25.7563 2.3289 24.4246 2.59231C23.5273 1.63888 22.3409 1.00759 21.0488 0.796053C19.7567 0.584516 18.4309 0.804511 17.2764 1.42203C16.1219 2.03954 15.203 3.02018 14.6617 4.21233C14.1205 5.40448 13.987 6.74173 14.2819 8.01735C11.9172 7.89868 9.60376 7.28438 7.49164 6.21428C5.37953 5.14417 3.51588 3.64214 2.0215 1.80557C1.26198 3.11508 1.02957 4.66465 1.3715 6.13935C1.71342 7.61406 2.60403 8.90324 3.86232 9.74489C2.91768 9.7149 1.99372 9.46056 1.1668 9.0029V9.07653C1.16595 10.4508 1.64103 11.7829 2.51129 12.8464C3.38155 13.91 4.59327 14.6393 5.94047 14.9105C5.0654 15.1499 4.14698 15.1848 3.25627 15.0125C3.63642 16.1943 4.37607 17.228 5.37197 17.9692C6.36788 18.7105 7.57035 19.1223 8.81158 19.1472C6.70435 20.8025 4.10129 21.7003 1.42168 21.6961C0.946472 21.6953 0.471732 21.6662 0 21.6088C2.7222 23.3553 5.88885 24.2828 9.12311 24.2811Z" fill="white"/>
</svg>
